<svg width="290" height="283" viewBox="0 0 290 283" fill="none" xmlns="http://www.w3.org/2000/svg">
<path opacity="0.5" fill-rule="evenodd" clip-rule="evenodd" d="M95.65 258.78L121.58 271.27L129.13 274.9L89.39 100.82H59.6L95.65 258.78Z" fill="white"/>
<path opacity="0.5" fill-rule="evenodd" clip-rule="evenodd" d="M28.7 226.54L62.18 242.66L29.81 100.82H0L28.69 226.53L28.7 226.54Z" fill="white"/>
<path opacity="0.5" fill-rule="evenodd" clip-rule="evenodd" d="M167.65 182.64L148.97 100.82H119.18L152.75 247.91L167.65 182.64Z" fill="white"/>
<path fill-rule="evenodd" clip-rule="evenodd" d="M202.94 254.52L173.9 268.5L229.43 25.22L249.53 50.41L202.94 254.52Z" fill="white"/>
<path fill-rule="evenodd" clip-rule="evenodd" d="M261.04 226.54L231.98 240.54L269.62 75.6099L289.73 100.83L261.04 226.54Z" fill="white"/>
<path fill-rule="evenodd" clip-rule="evenodd" d="M80.4 0.00997925L60.3 25.21H177.74L171.99 50.41H40.2L20.1 75.61H166.23L160.48 100.81H0L5.75 126.01H154.73L121.58 271.25L144.87 282.46L209.34 0H80.4V0.00997925Z" fill="white"/>
</svg>
