<svg width="12" height="12" viewBox="0 0 12 12" fill="none" xmlns="http://www.w3.org/2000/svg">
<path d="M11.1041 5.27082H6.72913V0.895823C6.72913 0.702436 6.6523 0.51697 6.51556 0.380225C6.37881 0.243479 6.19335 0.166656 5.99996 0.166656C5.80657 0.166656 5.62111 0.243479 5.48436 0.380225C5.34762 0.51697 5.27079 0.702436 5.27079 0.895823V5.27082H0.895793C0.702406 5.27082 0.516939 5.34765 0.380194 5.48439C0.243449 5.62114 0.166626 5.8066 0.166626 5.99999C0.166626 6.19338 0.243449 6.37884 0.380194 6.51559C0.516939 6.65233 0.702406 6.72916 0.895793 6.72916H5.27079V11.1042C5.27079 11.2975 5.34762 11.483 5.48436 11.6198C5.62111 11.7565 5.80657 11.8333 5.99996 11.8333C6.19335 11.8333 6.37881 11.7565 6.51556 11.6198C6.6523 11.483 6.72913 11.2975 6.72913 11.1042V6.72916H11.1041C11.2975 6.72916 11.483 6.65233 11.6197 6.51559C11.7565 6.37884 11.8333 6.19338 11.8333 5.99999C11.8333 5.8066 11.7565 5.62114 11.6197 5.48439C11.483 5.34765 11.2975 5.27082 11.1041 5.27082Z" fill="white"/>
</svg>
