<svg width="12" height="12" viewBox="0 0 12 12" fill="none" xmlns="http://www.w3.org/2000/svg">
<path d="M11.3334 3.46133C11.3338 3.39114 11.3204 3.32156 11.2938 3.25658C11.2673 3.1916 11.2282 3.1325 11.1787 3.08266L8.91741 0.821332C8.86757 0.771902 8.80847 0.732795 8.74349 0.706254C8.67851 0.679713 8.60893 0.66626 8.53874 0.666665C8.46855 0.66626 8.39897 0.679713 8.33399 0.706254C8.26901 0.732795 8.20991 0.771902 8.16008 0.821332L6.65075 2.33066L0.821423 8.15999C0.771993 8.20982 0.732887 8.26892 0.706346 8.3339C0.679804 8.39888 0.666351 8.46846 0.666757 8.53865V10.8C0.666757 10.9414 0.722947 11.0771 0.822966 11.1771C0.922986 11.2771 1.05864 11.3333 1.20009 11.3333H3.46142C3.53605 11.3374 3.61069 11.3257 3.68052 11.2991C3.75035 11.2724 3.8138 11.2314 3.86675 11.1786L9.66407 5.34932L11.1787 3.86666C11.2274 3.81497 11.2671 3.75548 11.2961 3.69066C11.3012 3.64815 11.3012 3.60517 11.2961 3.56266C11.2986 3.53783 11.2986 3.51282 11.2961 3.48799L11.3334 3.46133ZM3.24275 10.2666H1.73342V8.75732L7.02941 3.46133L8.53874 4.97066L3.24275 10.2666ZM9.29074 4.21866L7.78141 2.70933L8.53874 1.95733L10.0427 3.46133L9.29074 4.21866Z" fill="#05CBBF"/>
</svg>
