<svg width="14" height="10" viewBox="0 0 14 10" fill="none" xmlns="http://www.w3.org/2000/svg">
<path d="M13.3612 1.0745C13.273 0.998084 13.168 0.937433 13.0524 0.896043C12.9368 0.854653 12.8128 0.833344 12.6876 0.833344C12.5623 0.833344 12.4383 0.854653 12.3227 0.896043C12.2071 0.937433 12.1022 0.998084 12.014 1.0745L4.94591 7.15639L1.97638 4.59645C1.88481 4.52044 1.77671 4.46067 1.65825 4.42055C1.5398 4.38044 1.41331 4.36077 1.28601 4.36266C1.15871 4.36455 1.03309 4.38797 0.91632 4.43158C0.799551 4.4752 0.693922 4.53814 0.605464 4.61683C0.517006 4.69553 0.447451 4.78842 0.400769 4.89021C0.354088 4.992 0.331195 5.10069 0.333397 5.21009C0.335599 5.31948 0.362854 5.42743 0.413605 5.52777C0.464356 5.62811 0.537609 5.71888 0.629182 5.7949L4.27231 8.92552C4.36051 9.00194 4.46544 9.06259 4.58105 9.10398C4.69666 9.14537 4.82067 9.16668 4.94591 9.16668C5.07115 9.16668 5.19516 9.14537 5.31077 9.10398C5.42638 9.06259 5.53131 9.00194 5.61951 8.92552L13.3612 2.27294C13.4575 2.1966 13.5343 2.10394 13.5869 2.00081C13.6394 1.89768 13.6666 1.78631 13.6666 1.67372C13.6666 1.56113 13.6394 1.44976 13.5869 1.34663C13.5343 1.2435 13.4575 1.15084 13.3612 1.0745Z" fill="#05CBBF"/>
</svg>
