<svg
   width="12"
   height="12"
   viewBox="0 0 12 12"
   fill="none"
   xmlns="http://www.w3.org/2000/svg">
  <path
     d="m 5.994494,11.989592 c -3.3051703,0 -5.98437502,-2.6722089 -5.98437502,-5.9687496 0,-3.2965409 2.67920472,-5.96875032 5.98437502,-5.96875032 3.3051703,0 5.984375,2.67220942 5.984375,5.96875032 0,3.2965407 -2.6792047,5.9687496 -5.984375,5.9687496 z M 5.3960565,7.8114674 v 1.19375 h 1.196875 v -1.19375 z M 6.5929315,6.8296081 C 7.0738957,6.6850449 7.4867578,6.3729987 7.7564137,5.9502321 8.0260098,5.5275252 8.1344467,5.0223301 8.0619161,4.5265478 7.9894453,4.0307894 7.7407945,3.5774985 7.3613253,3.2492292 6.9818561,2.9209539 6.4968225,2.7395457 5.994494,2.7380296 5.5102982,2.7379938 5.0410036,2.9052441 4.6664355,3.2113455 4.2918915,3.5174469 4.0352156,3.9434964 3.9400581,4.4170391 L 5.1141925,4.651611 C 5.1475254,4.4853396 5.2274767,4.3319248 5.3448303,4.2092192 5.462124,4.0865077 5.6119728,3.999549 5.7769021,3.9584661 c 0.1649294,-0.041089 0.3381771,-0.034619 0.4995757,0.018658 0.1613986,0.053277 0.3043054,0.1511705 0.412084,0.282286 0.1078385,0.1311156 0.1760604,0.2900693 0.1968261,0.4583582 0.020766,0.1682949 -0.00679,0.3390012 -0.079532,0.4922787 -0.07271,0.1532775 -0.1876102,0.2827995 -0.3312352,0.3734648 -0.143625,0.090725 -0.3101103,0.1388928 -0.4801264,0.1388928 -0.1587056,0 -0.3109481,0.062911 -0.4231551,0.1748247 C 5.4591318,6.0091437 5.3960565,6.1609887 5.3960565,6.3192799 v 0.8953125 h 1.196875 z"
     fill="#3B3B3B" />
</svg>
