<?xml version="1.0" encoding="UTF-8" standalone="no"?>
<svg
   xmlns:dc="http://purl.org/dc/elements/1.1/"
   xmlns:cc="http://creativecommons.org/ns#"
   xmlns:rdf="http://www.w3.org/1999/02/22-rdf-syntax-ns#"
   xmlns:svg="http://www.w3.org/2000/svg"
   xmlns="http://www.w3.org/2000/svg"
   xmlns:sodipodi="http://sodipodi.sourceforge.net/DTD/sodipodi-0.dtd"
   
   width="24"
   height="24"
   viewBox="0 0 24 24"
   fill="none"
   version="1.1"
   id="svg6">
  
  <circle
     cx="12.002687"
     cy="12.002687"
     id="circle2"
     style="fill:transparent;stroke-width:1.50033605"
     r="12.002687" />
  <path
     d="M 19.16064,7.7621826 C 19.06146,7.6796296 18.943391,7.614115 18.813312,7.5694043 c -0.13008,-0.044716 -0.269611,-0.067727 -0.410642,-0.067727 -0.140882,0 -0.280413,0.023013 -0.410491,0.067727 -0.13008,0.044716 -0.248157,0.1102341 -0.347479,0.1927783 L 9.6914201,14.332107 6.3499467,11.566691 C 6.246903,11.484615 6.1252564,11.420107 5.9919666,11.376748 c -0.1332899,-0.04336 -0.2756267,-0.06467 -0.4188639,-0.06256 -0.1432521,0.0021 -0.2845987,0.02731 -0.4159981,0.07441 -0.1313995,0.0471 -0.250256,0.115229 -0.3497884,0.200147 -0.099531,0.08507 -0.1778047,0.185443 -0.2303314,0.295266 -0.052526,0.109969 -0.078288,0.227451 -0.075811,0.345677 0.00247,0.118074 0.033142,0.234651 0.09026,0.343127 0.057103,0.108327 0.1395312,0.206446 0.2425742,0.288514 l 4.0994276,3.381908 c 0.09919,0.08251 0.2172631,0.148084 0.3473425,0.192791 0.1302306,0.04472 0.2697609,0.06766 0.4106428,0.06766 0.1408819,0 0.2804133,-0.02294 0.4104911,-0.06766 0.130079,-0.04472 0.248155,-0.11027 0.347477,-0.192791 L 19.16064,9.056772 c 0.108469,-0.082458 0.194893,-0.1825455 0.254006,-0.2939452 0.05912,-0.1114228 0.08972,-0.2317129 0.08972,-0.3533451 0,-0.1216164 -0.03061,-0.2419293 -0.08972,-0.3533288 C 19.355526,7.9447303 19.269114,7.8446504 19.16064,7.7621771 Z"
     id="path4"
     style="fill:#ffffff;stroke-width:1.50033605" />
</svg>
