<svg width="16" height="10" viewBox="0 0 16 10" fill="none" xmlns="http://www.w3.org/2000/svg">
<path d="M15.5539 0.524916C15.4492 0.437805 15.3246 0.368662 15.1873 0.321477C15.05 0.274293 14.9028 0.25 14.7541 0.25C14.6053 0.25 14.4581 0.274293 14.3208 0.321477C14.1835 0.368662 14.0589 0.437805 13.9542 0.524916L5.56084 7.45828L2.03453 4.53994C1.92579 4.45329 1.79742 4.38515 1.65675 4.33942C1.51609 4.29369 1.36588 4.27126 1.21471 4.27342C1.06354 4.27558 0.914368 4.30228 0.775706 4.35199C0.637044 4.40171 0.511609 4.47347 0.406565 4.56318C0.301521 4.65289 0.218924 4.75879 0.16349 4.87483C0.108056 4.99087 0.0808699 5.11478 0.0834853 5.23949C0.0861007 5.3642 0.118466 5.48726 0.178733 5.60165C0.238999 5.71604 0.325988 5.81951 0.434731 5.90617L4.76095 9.47508C4.86568 9.5622 4.99028 9.63134 5.12757 9.67852C5.26486 9.72571 5.41212 9.75 5.56084 9.75C5.70957 9.75 5.85683 9.72571 5.99412 9.67852C6.13141 9.63134 6.25601 9.5622 6.36074 9.47508L15.5539 1.89114C15.6683 1.80411 15.7596 1.69848 15.822 1.58091C15.8844 1.46334 15.9166 1.33638 15.9166 1.20803C15.9166 1.07968 15.8844 0.952715 15.822 0.835146C15.7596 0.717576 15.6683 0.611948 15.5539 0.524916Z" fill="white"/>
</svg>
