<svg width="12" height="8" viewBox="0 0 12 8" fill="none" xmlns="http://www.w3.org/2000/svg">
<path d="M6.15286 4.10353C6.41192 3.88618 6.6197 3.61736 6.76211 3.3153C6.90453 3.01325 6.97823 2.68504 6.97823 2.35294C6.97823 1.7289 6.72247 1.13042 6.26722 0.689161C5.81196 0.247899 5.19451 8.41934e-08 4.55069 8.41934e-08C3.90686 8.41934e-08 3.28941 0.247899 2.83416 0.689161C2.37891 1.13042 2.12315 1.7289 2.12315 2.35294C2.12315 2.68504 2.19685 3.01325 2.33926 3.3153C2.48167 3.61736 2.68946 3.88618 2.94851 4.10353C2.26887 4.40183 1.69224 4.88354 1.28758 5.49108C0.882917 6.09862 0.667341 6.80626 0.666626 7.52941C0.666626 7.65422 0.717778 7.77392 0.808828 7.86217C0.899878 7.95042 1.02337 8 1.15213 8C1.2809 8 1.40439 7.95042 1.49544 7.86217C1.58649 7.77392 1.63764 7.65422 1.63764 7.52941C1.63764 6.78057 1.94455 6.06239 2.49085 5.53288C3.03716 5.00336 3.7781 4.70588 4.55069 4.70588C5.32328 4.70588 6.06422 5.00336 6.61052 5.53288C7.15682 6.06239 7.46373 6.78057 7.46373 7.52941C7.46373 7.65422 7.51489 7.77392 7.60594 7.86217C7.69699 7.95042 7.82048 8 7.94924 8C8.07801 8 8.2015 7.95042 8.29255 7.86217C8.3836 7.77392 8.43475 7.65422 8.43475 7.52941C8.43403 6.80626 8.21846 6.09862 7.81379 5.49108C7.40913 4.88354 6.83251 4.40183 6.15286 4.10353V4.10353ZM4.55069 3.76471C4.26261 3.76471 3.98101 3.68191 3.74149 3.52678C3.50196 3.37165 3.31528 3.15117 3.20504 2.8932C3.09479 2.63523 3.06595 2.35138 3.12215 2.07752C3.17835 1.80366 3.31707 1.55211 3.52077 1.35467C3.72447 1.15723 3.984 1.02278 4.26653 0.968303C4.54907 0.91383 4.84193 0.941788 5.10807 1.04864C5.37422 1.15549 5.6017 1.33644 5.76174 1.56861C5.92179 1.80077 6.00721 2.07372 6.00721 2.35294C6.00721 2.72736 5.85376 3.08645 5.58061 3.35121C5.30745 3.61597 4.93698 3.76471 4.55069 3.76471ZM9.27953 3.91529C9.59024 3.57616 9.7932 3.1572 9.86399 2.70887C9.93477 2.26053 9.87036 1.80192 9.67851 1.38824C9.48665 0.974553 9.17553 0.623433 8.7826 0.37714C8.38967 0.130847 7.93167 -0.000121224 7.46373 8.41934e-08C7.33497 8.41934e-08 7.21148 0.0495798 7.12043 0.137832C7.02938 0.226085 6.97823 0.345781 6.97823 0.470588C6.97823 0.595396 7.02938 0.715092 7.12043 0.803344C7.21148 0.891597 7.33497 0.941177 7.46373 0.941177C7.85003 0.941177 8.2205 1.08992 8.49365 1.35467C8.7668 1.61943 8.92026 1.97852 8.92026 2.35294C8.91957 2.60011 8.85194 2.84278 8.72414 3.05667C8.59634 3.27056 8.41284 3.44818 8.192 3.57176C8.12001 3.61201 8.05989 3.66949 8.01739 3.7387C7.97489 3.80791 7.95142 3.88654 7.94924 3.96706C7.94721 4.04695 7.9662 4.12602 8.00443 4.19683C8.04265 4.26763 8.09885 4.32784 8.16772 4.37176L8.35707 4.49412L8.42018 4.52706C9.00541 4.7961 9.49913 5.22164 9.8432 5.75356C10.1873 6.28548 10.3673 6.90162 10.3622 7.52941C10.3622 7.65422 10.4134 7.77392 10.5044 7.86217C10.5955 7.95042 10.719 8 10.8477 8C10.9765 8 11.1 7.95042 11.191 7.86217C11.2821 7.77392 11.3332 7.65422 11.3332 7.52941C11.3372 6.80726 11.1506 6.09612 10.7911 5.46356C10.4317 4.831 9.91135 4.29803 9.27953 3.91529V3.91529Z" fill="#3B3B3B"/>
</svg>
