<svg width="290" height="283" viewBox="0 0 290 283" fill="none" xmlns="http://www.w3.org/2000/svg">
<path opacity="0.5" fill-rule="evenodd" clip-rule="evenodd" d="M95.65 258.77L121.58 271.26L129.13 274.89L89.39 100.81H59.6L95.65 258.77Z" fill="#0C2F6A"/>
<path opacity="0.5" fill-rule="evenodd" clip-rule="evenodd" d="M28.7 226.52L62.18 242.64L29.8 100.81H0L28.69 226.52H28.7Z" fill="#0C2F6A"/>
<path opacity="0.5" fill-rule="evenodd" clip-rule="evenodd" d="M167.65 182.63L148.97 100.81H119.18L152.75 247.9L167.65 182.63Z" fill="#0C2F6A"/>
<path fill-rule="evenodd" clip-rule="evenodd" d="M202.94 254.5L173.9 268.48L229.43 25.2L249.53 50.3899L202.94 254.5Z" fill="#0C2F6A"/>
<path fill-rule="evenodd" clip-rule="evenodd" d="M261.04 226.52L231.98 240.52L269.62 75.5901L289.73 100.81L261.04 226.52Z" fill="#0C2F6A"/>
<path fill-rule="evenodd" clip-rule="evenodd" d="M80.4 0L60.3 25.2H177.74L171.99 50.4H40.2L20.1 75.6H166.23L160.48 100.8H0L5.75 126H154.73L121.58 271.24L144.87 282.45L209.34 0H80.4Z" fill="#0C2F6A"/>
</svg>
