<svg width="20" height="20" viewBox="0 0 20 20" fill="none" xmlns="http://www.w3.org/2000/svg">
<path d="M15.2367 0C16.4423 0 16.581 0.553489 17.3258 1.50142L19.4116 5.42874L19.4258 5.44867C20.4767 6.91993 19.7656 8.87089 18.2378 9.46423C17.4185 9.78243 15.6266 9.70285 14.9004 8.54101L13.954 7.02673C13.7932 6.76952 13.5229 6.62243 13.2414 6.60812C13.227 6.60739 13.2127 6.60701 13.1984 6.60697C13.036 6.60654 12.8715 6.65038 12.7236 6.7428C12.5988 6.82083 12.4999 6.92466 12.4295 7.04306C12.4015 7.09017 12.3775 7.1404 12.3582 7.19338C12.3467 7.22493 12.337 7.25708 12.3291 7.28966L12.2227 7.71527C11.9657 8.7432 11.0421 9.46432 9.98256 9.46432C8.92299 9.46432 7.9994 8.7432 7.74242 7.71527L7.63594 7.28936C7.62852 7.25877 7.61949 7.22858 7.60888 7.19891C7.58857 7.14197 7.56288 7.08819 7.53256 7.03799C7.46239 6.9217 7.36454 6.81971 7.24148 6.7428C7.0936 6.65038 6.92912 6.60654 6.76672 6.60697C6.75314 6.60701 6.73952 6.60735 6.72587 6.60802C6.44353 6.62169 6.17229 6.76887 6.01113 7.02673L5.0647 8.54101C4.33855 9.70285 2.79311 9.87817 1.72729 9.46423C0.199547 8.87089 -0.511631 6.91993 0.539269 5.44867L0.553508 5.42874L2.63926 1.50142C3.38406 0.553488 3.52285 0 4.72837 0H15.2367Z" fill="#DEF3FF"/>
<path fill-rule="evenodd" clip-rule="evenodd" d="M2.12541 11.2499V18.5C2.12541 19.8807 2.2447 20 3.62541 20H16.3397C17.7204 20 17.8397 19.8807 17.8397 18.5V11.2499H16.5661C15.2732 11.2499 14.0714 10.5839 13.3861 9.48744L13.3683 9.45894C12.6223 10.5548 11.368 11.25 9.98256 11.25C8.59716 11.25 7.34284 10.5548 6.5968 9.45894L6.57898 9.48744C5.89371 10.5839 4.69195 11.2499 3.39899 11.2499H2.12541ZM14.2683 14.7857C14.2683 13.9967 13.6287 13.3571 12.8397 13.3571H11.4111C10.6221 13.3571 9.98256 13.9967 9.98256 14.7857V17.2142C9.98256 17.4115 10.1425 17.5714 10.3397 17.5714H13.9111C14.1084 17.5714 14.2683 17.4115 14.2683 17.2142V14.7857Z" fill="#DEF3FF"/>
</svg>
