<svg width="23" height="22" viewBox="0 -2 25 26" fill="none" xmlns="http://www.w3.org/2000/svg">
<path d="M12.3783 2.99991C11.9846 3.91868 11.765 4.93308 11.765 5.99986C11.7651 10.1418 15.0572 13.4997 19.1182 13.4997C20.7739 13.4997 22.301 12.9402 23.5301 11.9983V12.0584C23.5297 16.3787 19.9553 19.8819 15.5465 19.882H12.8149L7.47379 23.7579C7.09124 24.0354 6.58047 24.0776 6.15539 23.8677C5.73039 23.6578 5.46323 23.2297 5.46316 22.7633V19.4835C2.28969 18.4491 0.000303346 15.5163 0 12.0584V10.8235C0 6.50285 3.57458 2.99999 7.98363 2.99991H12.3783Z" fill="#def3ff"/>
<path d="M17.9276 3.12735C18.0688 2.20692 19.3796 2.18805 19.5462 3.10391L19.5691 3.23428C19.793 4.46654 20.7624 5.42394 21.9905 5.62633C22.8918 5.77481 22.9101 7.07325 22.0135 7.24789L21.9316 7.264C20.7296 7.49814 19.7903 8.44465 19.5577 9.65459L19.5318 9.78496C19.348 10.7378 17.9937 10.7378 17.8098 9.78496L17.7897 9.68242C17.5542 8.45763 16.5962 7.50422 15.377 7.28012C14.4486 7.10931 14.4996 5.75727 15.433 5.61608C16.7115 5.42276 17.7301 4.41338 17.9276 3.12735Z" fill="#def3ff"/>
<path d="M22.7502 0.256299C22.9362 -0.0854008 23.4231 -0.085465 23.6091 0.256299L23.7627 0.539009C23.9246 0.837 24.169 1.08208 24.465 1.24505L24.7451 1.40032C25.085 1.58745 25.085 2.07891 24.7451 2.26603L24.465 2.41984C24.1691 2.58277 23.9246 2.82801 23.7627 3.12588L23.6091 3.41006C23.4231 3.75138 22.9363 3.75132 22.7502 3.41006L22.5951 3.12588C22.4332 2.82825 22.1901 2.58267 21.8943 2.41984L21.6128 2.26603C21.2733 2.07888 21.2735 1.58759 21.6128 1.40032L21.8943 1.24505C22.1903 1.08208 22.4332 0.836999 22.5951 0.539009L22.7502 0.256299Z" fill="#def3ff"/>
</svg>
