<svg width="32" height="32" viewBox="0 0 32 32" fill="none" xmlns="http://www.w3.org/2000/svg">
<circle cx="16" cy="16" r="16" fill="#FD4A4A"/>
<path d="M6.98417 16C7.7675 11.7333 11.5067 8.5 16 8.5C20.4933 8.5 24.2317 11.7333 25.0158 16C24.2325 20.2667 20.4933 23.5 16 23.5C11.5067 23.5 7.76833 20.2667 6.98417 16ZM16 20.1667C17.1051 20.1667 18.1649 19.7277 18.9463 18.9463C19.7277 18.1649 20.1667 17.1051 20.1667 16C20.1667 14.8949 19.7277 13.8351 18.9463 13.0537C18.1649 12.2723 17.1051 11.8333 16 11.8333C14.8949 11.8333 13.8351 12.2723 13.0537 13.0537C12.2723 13.8351 11.8333 14.8949 11.8333 16C11.8333 17.1051 12.2723 18.1649 13.0537 18.9463C13.8351 19.7277 14.8949 20.1667 16 20.1667ZM16 18.5C15.337 18.5 14.7011 18.2366 14.2322 17.7678C13.7634 17.2989 13.5 16.663 13.5 16C13.5 15.337 13.7634 14.7011 14.2322 14.2322C14.7011 13.7634 15.337 13.5 16 13.5C16.663 13.5 17.2989 13.7634 17.7678 14.2322C18.2366 14.7011 18.5 15.337 18.5 16C18.5 16.663 18.2366 17.2989 17.7678 17.7678C17.2989 18.2366 16.663 18.5 16 18.5Z" fill="white"/>
</svg>
