<svg width="10" height="12" viewBox="0 0 10 12" fill="none" xmlns="http://www.w3.org/2000/svg">
<path d="M7.70829 4.4V3.33334C7.70829 2.62609 7.42295 1.94782 6.91504 1.44772C6.40713 0.947623 5.71825 0.666672 4.99996 0.666672C4.28166 0.666672 3.59279 0.947623 3.08488 1.44772C2.57697 1.94782 2.29163 2.62609 2.29163 3.33334V4.4C1.86065 4.4 1.44732 4.56858 1.14258 4.86863C0.837831 5.16869 0.666626 5.57566 0.666626 6V9.73334C0.666626 10.1577 0.837831 10.5647 1.14258 10.8647C1.44732 11.1648 1.86065 11.3333 2.29163 11.3333H7.70829C8.13927 11.3333 8.55259 11.1648 8.85734 10.8647C9.16209 10.5647 9.33329 10.1577 9.33329 9.73334V6C9.33329 5.57566 9.16209 5.16869 8.85734 4.86863C8.55259 4.56858 8.13927 4.4 7.70829 4.4ZM3.37496 3.33334C3.37496 2.90899 3.54616 2.50203 3.85091 2.20197C4.15566 1.90191 4.56898 1.73334 4.99996 1.73334C5.43094 1.73334 5.84426 1.90191 6.14901 2.20197C6.45375 2.50203 6.62496 2.90899 6.62496 3.33334V4.4H3.37496V3.33334ZM8.24996 9.73334C8.24996 9.87479 8.19289 10.0104 8.09131 10.1105C7.98973 10.2105 7.85195 10.2667 7.70829 10.2667H2.29163C2.14797 10.2667 2.01019 10.2105 1.90861 10.1105C1.80703 10.0104 1.74996 9.87479 1.74996 9.73334V6C1.74996 5.85856 1.80703 5.7229 1.90861 5.62288C2.01019 5.52286 2.14797 5.46667 2.29163 5.46667H7.70829C7.85195 5.46667 7.98973 5.52286 8.09131 5.62288C8.19289 5.7229 8.24996 5.85856 8.24996 6V9.73334Z" fill="#3B3B3B"/>
</svg>
