<svg width="8" height="12" viewBox="0 0 8 12" fill="none" xmlns="http://www.w3.org/2000/svg">
<path d="M0 5.99999C0 6.14144 0.0526785 6.27709 0.146447 6.37711C0.240215 6.47713 0.367392 6.53332 0.5 6.53332H4.295L3.145 7.75466C3.09814 7.80424 3.06094 7.86322 3.03555 7.92822C3.01017 7.99321 2.9971 8.06292 2.9971 8.13332C2.9971 8.20373 3.01017 8.27344 3.03555 8.33843C3.06094 8.40342 3.09814 8.46241 3.145 8.51199C3.19148 8.56198 3.24678 8.60166 3.30771 8.62873C3.36864 8.65581 3.43399 8.66975 3.5 8.66975C3.56601 8.66975 3.63136 8.65581 3.69229 8.62873C3.75322 8.60166 3.80852 8.56198 3.855 8.51199L5.855 6.37866C5.90052 6.32793 5.9362 6.26812 5.96 6.20266C6.01001 6.07281 6.01001 5.92717 5.96 5.79732C5.9362 5.73186 5.90052 5.67204 5.855 5.62132L3.855 3.48799C3.80838 3.43826 3.75304 3.39882 3.69212 3.3719C3.63121 3.34499 3.56593 3.33114 3.5 3.33114C3.43407 3.33114 3.36879 3.34499 3.30788 3.3719C3.24696 3.39882 3.19162 3.43826 3.145 3.48799C3.09838 3.53772 3.0614 3.59675 3.03617 3.66172C3.01094 3.7267 2.99795 3.79633 2.99795 3.86666C2.99795 3.93698 3.01094 4.00662 3.03617 4.07159C3.0614 4.13656 3.09838 4.1956 3.145 4.24532L4.295 5.46666H0.5C0.367392 5.46666 0.240215 5.52285 0.146447 5.62287C0.0526785 5.72289 0 5.85854 0 5.99999V5.99999ZM6.5 0.666656H1.5C1.10218 0.666656 0.720644 0.835227 0.43934 1.13529C0.158035 1.43534 0 1.84231 0 2.26666V3.86666C0 4.00811 0.0526785 4.14376 0.146447 4.24378C0.240215 4.3438 0.367392 4.39999 0.5 4.39999C0.632608 4.39999 0.759785 4.3438 0.853553 4.24378C0.947321 4.14376 1 4.00811 1 3.86666V2.26666C1 2.12521 1.05268 1.98955 1.14645 1.88953C1.24021 1.78951 1.36739 1.73332 1.5 1.73332H6.5C6.63261 1.73332 6.75979 1.78951 6.85355 1.88953C6.94732 1.98955 7 2.12521 7 2.26666V9.73332C7 9.87477 6.94732 10.0104 6.85355 10.1104C6.75979 10.2105 6.63261 10.2667 6.5 10.2667H1.5C1.36739 10.2667 1.24021 10.2105 1.14645 10.1104C1.05268 10.0104 1 9.87477 1 9.73332V8.13332C1 7.99187 0.947321 7.85622 0.853553 7.7562C0.759785 7.65618 0.632608 7.59999 0.5 7.59999C0.367392 7.59999 0.240215 7.65618 0.146447 7.7562C0.0526785 7.85622 0 7.99187 0 8.13332V9.73332C0 10.1577 0.158035 10.5646 0.43934 10.8647C0.720644 11.1648 1.10218 11.3333 1.5 11.3333H6.5C6.89782 11.3333 7.27936 11.1648 7.56066 10.8647C7.84196 10.5646 8 10.1577 8 9.73332V2.26666C8 1.84231 7.84196 1.43534 7.56066 1.13529C7.27936 0.835227 6.89782 0.666656 6.5 0.666656Z" fill="#3B3B3B"/>
</svg>
