<svg width="12" height="8" viewBox="0 0 12 8" fill="none" xmlns="http://www.w3.org/2000/svg">
<path d="M3.33329 5.33333H4.93329C5.07474 5.33333 5.2104 5.27714 5.31042 5.17712C5.41044 5.0771 5.46663 4.94145 5.46663 4.8C5.46663 4.65855 5.41044 4.5229 5.31042 4.42288C5.2104 4.32286 5.07474 4.26667 4.93329 4.26667H3.33329C3.19184 4.26667 3.05619 4.32286 2.95617 4.42288C2.85615 4.5229 2.79996 4.65855 2.79996 4.8C2.79996 4.94145 2.85615 5.0771 2.95617 5.17712C3.05619 5.27714 3.19184 5.33333 3.33329 5.33333ZM9.73329 0H2.26663C1.84228 0 1.43531 0.168571 1.13526 0.468629C0.835197 0.768687 0.666626 1.17565 0.666626 1.6V6.4C0.666626 6.82435 0.835197 7.23131 1.13526 7.53137C1.43531 7.83143 1.84228 8 2.26663 8H9.73329C10.1576 8 10.5646 7.83143 10.8647 7.53137C11.1647 7.23131 11.3333 6.82435 11.3333 6.4V1.6C11.3333 1.17565 11.1647 0.768687 10.8647 0.468629C10.5646 0.168571 10.1576 0 9.73329 0ZM10.2666 6.4C10.2666 6.54145 10.2104 6.6771 10.1104 6.77712C10.0104 6.87714 9.87474 6.93333 9.73329 6.93333H2.26663C2.12518 6.93333 1.98952 6.87714 1.8895 6.77712C1.78948 6.6771 1.73329 6.54145 1.73329 6.4V3.2H10.2666V6.4ZM10.2666 2.13333H1.73329V1.6C1.73329 1.45855 1.78948 1.3229 1.8895 1.22288C1.98952 1.12286 2.12518 1.06667 2.26663 1.06667H9.73329C9.87474 1.06667 10.0104 1.12286 10.1104 1.22288C10.2104 1.3229 10.2666 1.45855 10.2666 1.6V2.13333Z" fill="#3B3B3B"/>
</svg>
