<svg
   width="12"
   height="12"
   viewBox="0 0 12 12"
   fill="none"
   xmlns="http://www.w3.org/2000/svg">  
  <path
     d="m 11.249986,3.6041742 v 7.7957898 c 5.25e-4,0.07882 -0.01403,0.1569 -0.04282,0.22995 -0.02887,0.07297 -0.0714,0.139424 -0.125174,0.195524 -0.05378,0.0561 -0.11775,0.1008 -0.188325,0.131475 -0.07058,0.0306 -0.146325,0.04672 -0.222975,0.04725 H 1.3292475 c -0.1535251,0 -0.3007721,-0.0627 -0.4093791,-0.1743 -0.108615,-0.111599 -0.16971,-0.263024 -0.169868,-0.420899 V 0.59937818 c 0,-0.3221996 0.261915,-0.5951993 0.5844971,-0.5951993 H 7.7482416 Z M 10.083289,4.204173 H 7.1666176 V 1.2041773 H 1.9166617 V 10.804165 H 10.083289 Z M 3.6666569,3.004175 H 5.4166446 V 4.204173 H 3.6666569 Z m 0,2.399997 H 8.3333156 V 6.60417 H 3.6666569 Z m 0,2.399997 H 8.3333156 V 9.0041671 H 3.6666569 Z"
     fill="#3B3B3B" />
</svg>
