<svg width="670" height="283" viewBox="0 0 670 283" fill="none" xmlns="http://www.w3.org/2000/svg">
<path d="M411.34 173.28C408.54 181.23 402.8 186.24 393.08 186.24C378.65 186.24 370.26 173.28 370.26 156.05C370.26 138.82 378.65 125.86 393.08 125.86C402.8 125.86 408.54 130.72 411.34 138.52H438.88C435.05 117.17 419.59 101.41 393.09 101.41C363.64 101.41 342.29 124.09 342.29 156.04C342.29 187.99 363.64 210.67 393.09 210.67C419.59 210.67 435.05 194.91 438.88 173.27H411.34V173.28ZM485.41 129.55C461.85 129.55 445.65 146.04 445.65 170.04C445.65 194.04 461.85 210.68 485.41 210.68C508.97 210.68 525.02 194.04 525.02 170.04C525.02 146.04 508.82 129.55 485.41 129.55ZM485.41 151.93C493.66 151.93 498.37 159.44 498.37 170.04C498.37 180.64 493.66 188.3 485.41 188.3C477.16 188.3 472.45 180.79 472.45 170.04C472.45 159.29 477.01 151.93 485.41 151.93ZM587.46 130.87C586.28 130.28 583.34 129.55 579.95 129.55C572.15 129.55 566.11 133.08 562.57 138.24V131.32H535.48V208.92H562.57V163.42C563.75 157.97 568.9 154.59 576.12 154.59C580.54 154.59 584.07 155.33 587.46 157.09V130.88V130.87ZM644.13 181.82C642.66 187.27 638.24 189.62 632.79 189.62C625.13 189.62 620.27 184.61 619.39 175.34H669.45V168.57C669.45 145.45 656.05 129.55 632.34 129.55C608.63 129.55 593.32 146.19 593.32 170.19C593.32 194.19 609.08 210.68 632.78 210.68C653.1 210.68 666.35 199.78 669.15 181.82H644.12H644.13ZM643.39 161.94H619.83C621.6 154.72 625.87 150.6 632.35 150.6C638.83 150.6 642.8 155.61 643.39 161.94Z" fill="white"/>
<path opacity="0.5" fill-rule="evenodd" clip-rule="evenodd" d="M95.65 258.78L121.58 271.27L129.13 274.9L89.39 100.82H59.6L95.65 258.78Z" fill="white"/>
<path opacity="0.5" fill-rule="evenodd" clip-rule="evenodd" d="M28.7 226.54L62.18 242.66L29.81 100.82H0L28.69 226.53L28.7 226.54Z" fill="white"/>
<path opacity="0.5" fill-rule="evenodd" clip-rule="evenodd" d="M167.65 182.64L148.97 100.82H119.18L152.75 247.91L167.65 182.64Z" fill="white"/>
<path fill-rule="evenodd" clip-rule="evenodd" d="M202.94 254.52L173.9 268.5L229.43 25.22L249.53 50.41L202.94 254.52Z" fill="white"/>
<path fill-rule="evenodd" clip-rule="evenodd" d="M261.04 226.54L231.98 240.54L269.62 75.6099L289.73 100.83L261.04 226.54Z" fill="white"/>
<path fill-rule="evenodd" clip-rule="evenodd" d="M80.4 0.00997925L60.3 25.21H177.74L171.99 50.41H40.2L20.1 75.61H166.23L160.48 100.81H0L5.75 126.01H154.73L121.58 271.25L144.87 282.46L209.34 0H80.4V0.00997925Z" fill="white"/>
<path d="M376.69 61.0701C375.32 64.9701 372.5 67.4201 367.73 67.4201C360.64 67.4201 356.52 61.0701 356.52 52.6301C356.52 44.1901 360.64 37.8401 367.73 37.8401C372.5 37.8401 375.32 40.2201 376.69 44.0501H390.21C388.33 33.5901 380.74 25.8701 367.73 25.8701C353.27 25.8701 342.79 36.9801 342.79 52.6401C342.79 68.3001 353.27 79.4101 367.73 79.4101C380.74 79.4101 388.33 71.6901 390.21 61.0801H376.69V61.0701Z" fill="white"/>
<path d="M394.92 30.1901C394.92 34.5901 398.32 37.3301 402.37 37.3301C406.42 37.3301 409.96 34.5901 409.96 30.1901C409.96 25.7901 406.49 23.1201 402.37 23.1201C398.25 23.1201 394.92 25.8601 394.92 30.1901ZM409.09 40.5101H395.79V78.5401H409.09V40.5101Z" fill="white"/>
<path d="M416.26 78.5399H429.56V55.5899C430.14 52.9899 432.38 51.3999 434.98 51.3999C438.38 51.3999 439.9 53.6399 439.9 56.8799V78.5299H453.2V53.5599C453.2 45.1899 448.14 39.6299 439.68 39.6299C435.34 39.6299 431.58 41.4299 429.56 43.8199V40.4999H416.26V78.5299V78.5399Z" fill="white"/>
<path d="M489.35 35.82V26.73H452.91V38.35H474.96L459.85 78.54H473.51L489.34 35.82H489.35Z" fill="white"/>
</svg>
