<svg width="18" height="18" viewBox="0 0 18 18" fill="none" xmlns="http://www.w3.org/2000/svg">
<path d="M9.00016 4.66668C8.77031 4.66668 8.54987 4.75798 8.38734 4.92052C8.22481 5.08305 8.1335 5.30349 8.1335 5.53334V9.00001C8.1335 9.22986 8.22481 9.4503 8.38734 9.61283C8.54987 9.77536 8.77031 9.86667 9.00016 9.86667C9.23002 9.86667 9.45046 9.77536 9.61299 9.61283C9.77552 9.4503 9.86683 9.22986 9.86683 9.00001V5.53334C9.86683 5.30349 9.77552 5.08305 9.61299 4.92052C9.45046 4.75798 9.23002 4.66668 9.00016 4.66668ZM9.7975 12.1373C9.77853 12.0821 9.7523 12.0297 9.7195 11.9813L9.6155 11.8513C9.49362 11.7311 9.33886 11.6496 9.17074 11.6172C9.00261 11.5848 8.82866 11.603 8.67083 11.6693C8.5658 11.7132 8.46907 11.7748 8.38483 11.8513C8.30451 11.9323 8.24096 12.0284 8.19783 12.134C8.1547 12.2395 8.13284 12.3526 8.1335 12.4667C8.13487 12.5799 8.15842 12.6918 8.20283 12.796C8.24176 12.9036 8.30386 13.0012 8.38473 13.0821C8.46561 13.163 8.56328 13.2251 8.67083 13.264C8.77457 13.3099 8.88674 13.3335 9.00016 13.3335C9.11359 13.3335 9.22576 13.3099 9.3295 13.264C9.43705 13.2251 9.53472 13.163 9.6156 13.0821C9.69647 13.0012 9.75857 12.9036 9.7975 12.796C9.84191 12.6918 9.86546 12.5799 9.86683 12.4667C9.87109 12.409 9.87109 12.351 9.86683 12.2933C9.85191 12.2381 9.82852 12.1854 9.7975 12.1373ZM9.00016 0.333344C7.28606 0.333344 5.61045 0.841635 4.18522 1.79394C2.76 2.74624 1.64917 4.09979 0.993211 5.68342C0.337251 7.26704 0.165622 9.00962 0.500028 10.6908C0.834433 12.372 1.65985 13.9162 2.87191 15.1283C4.08396 16.3403 5.62821 17.1657 7.30938 17.5001C8.99055 17.8345 10.7331 17.6629 12.3168 17.007C13.9004 16.351 15.2539 15.2402 16.2062 13.8149C17.1585 12.3897 17.6668 10.7141 17.6668 9.00001C17.6668 7.86188 17.4427 6.73491 17.0071 5.68342C16.5716 4.63193 15.9332 3.67652 15.1284 2.87175C14.3236 2.06698 13.3682 1.42859 12.3168 0.993054C11.2653 0.557513 10.1383 0.333344 9.00016 0.333344ZM9.00016 15.9333C7.62888 15.9333 6.28839 15.5267 5.14821 14.7649C4.00803 14.003 3.11937 12.9202 2.5946 11.6533C2.06983 10.3864 1.93253 8.99232 2.20006 7.64738C2.46758 6.30245 3.12791 5.06705 4.09756 4.0974C5.0672 3.12776 6.3026 2.46742 7.64754 2.1999C8.99247 1.93237 10.3865 2.06968 11.6534 2.59444C12.9203 3.11921 14.0032 4.00787 14.765 5.14806C15.5269 6.28824 15.9335 7.62872 15.9335 9.00001C15.9335 10.8388 15.203 12.6024 13.9028 13.9026C12.6025 15.2029 10.839 15.9333 9.00016 15.9333Z" fill="#FD4A4A"/>
</svg>
