<svg width="18" height="18" viewBox="0 0 18 18" fill="none" xmlns="http://www.w3.org/2000/svg">
<path d="M9.01236 8.13298C8.78283 8.13298 8.5627 8.22429 8.4004 8.38681C8.23809 8.54934 8.14691 8.76977 8.14691 8.99961V11.5995C8.14691 11.8293 8.23809 12.0498 8.4004 12.2123C8.5627 12.3748 8.78283 12.4661 9.01236 12.4661C9.24189 12.4661 9.46202 12.3748 9.62432 12.2123C9.78662 12.0498 9.87781 11.8293 9.87781 11.5995V8.99961C9.87781 8.76977 9.78662 8.54934 9.62432 8.38681C9.46202 8.22429 9.24189 8.13298 9.01236 8.13298ZM9.01236 5.5331C8.84119 5.5331 8.67386 5.58392 8.53154 5.67915C8.38922 5.77438 8.27829 5.90973 8.21279 6.06808C8.14729 6.22644 8.13015 6.40069 8.16354 6.5688C8.19693 6.73691 8.27936 6.89132 8.4004 7.01252C8.52143 7.13372 8.67564 7.21626 8.84352 7.2497C9.0114 7.28314 9.18541 7.26598 9.34355 7.20039C9.50169 7.13479 9.63686 7.02372 9.73195 6.8812C9.82705 6.73868 9.87781 6.57113 9.87781 6.39973C9.87781 6.16988 9.78662 5.94945 9.62432 5.78693C9.46202 5.6244 9.24189 5.5331 9.01236 5.5331ZM9.01236 0.333328C7.87584 0.333328 6.75044 0.557488 5.70044 0.99301C4.65043 1.42853 3.69637 2.06688 2.89272 2.87162C1.2697 4.49687 0.35789 6.70117 0.35789 8.99961C0.350324 11.0008 1.04228 12.9415 2.3138 14.4854L0.582906 16.2186C0.462819 16.3405 0.38147 16.4952 0.349125 16.6634C0.316779 16.8315 0.334887 17.0054 0.401162 17.1632C0.473044 17.3192 0.589574 17.4502 0.735958 17.5397C0.882342 17.6292 1.05198 17.6731 1.22334 17.6659H9.01236C11.3077 17.6659 13.509 16.7528 15.132 15.1276C16.755 13.5024 17.6668 11.2981 17.6668 8.99961C17.6668 6.70117 16.755 4.49687 15.132 2.87162C13.509 1.24638 11.3077 0.333328 9.01236 0.333328ZM9.01236 15.9326H3.30906L4.11393 15.1267C4.1957 15.0464 4.26076 14.9507 4.30533 14.8451C4.34989 14.7395 4.37309 14.626 4.37356 14.5114C4.37031 14.2828 4.27699 14.0647 4.11393 13.9047C2.9807 12.7712 2.27501 11.2793 2.11708 9.6832C1.95915 8.08709 2.35875 6.48553 3.24781 5.15137C4.13687 3.81721 5.46038 2.83299 6.99285 2.36641C8.52532 1.89983 10.1719 1.97975 11.6522 2.59255C13.1324 3.20535 14.3546 4.31312 15.1107 5.72713C15.8667 7.14113 16.1098 8.77389 15.7984 10.3472C15.4871 11.9206 14.6406 13.3371 13.4032 14.3556C12.1658 15.374 10.6141 15.9314 9.01236 15.9326Z" fill="#0E6CF8"/>
</svg>
