<svg width="18" height="18" viewBox="0 0 18 18" fill="none" xmlns="http://www.w3.org/2000/svg">
<path d="M8.38483 11.8513C8.34756 11.8925 8.31283 11.9359 8.28083 11.9813C8.24803 12.0296 8.2218 12.0821 8.20283 12.1373C8.17784 12.1865 8.16032 12.239 8.15083 12.2933C8.14658 12.351 8.14658 12.409 8.15083 12.4667C8.1479 12.5804 8.17165 12.6931 8.22017 12.796C8.25909 12.9035 8.32119 13.0012 8.40207 13.0821C8.48294 13.163 8.58062 13.2251 8.68816 13.264C8.79191 13.3098 8.90408 13.3335 9.0175 13.3335C9.13092 13.3335 9.24309 13.3098 9.34683 13.264C9.45438 13.2251 9.55205 13.163 9.63293 13.0821C9.71381 13.0012 9.77591 12.9035 9.81483 12.796C9.85332 12.6906 9.87098 12.5788 9.86683 12.4667C9.86749 12.3526 9.84563 12.2395 9.8025 12.1339C9.75937 12.0284 9.69582 11.9323 9.6155 11.8513C9.53493 11.7701 9.43908 11.7056 9.33346 11.6616C9.22785 11.6176 9.11457 11.595 9.00016 11.595C8.88575 11.595 8.77248 11.6176 8.66686 11.6616C8.56125 11.7056 8.4654 11.7701 8.38483 11.8513ZM9.00016 0.333336C7.28606 0.333336 5.61045 0.841627 4.18522 1.79393C2.76 2.74624 1.64917 4.09978 0.993211 5.68341C0.337251 7.26704 0.165622 9.00961 0.500028 10.6908C0.834433 12.372 1.65985 13.9162 2.87191 15.1283C4.08396 16.3403 5.62821 17.1657 7.30938 17.5001C8.99055 17.8345 10.7331 17.6629 12.3168 17.007C13.9004 16.351 15.2539 15.2402 16.2062 13.8149C17.1585 12.3897 17.6668 10.7141 17.6668 9C17.6668 7.86188 17.4427 6.7349 17.0071 5.68341C16.5716 4.63192 15.9332 3.67652 15.1284 2.87174C14.3236 2.06697 13.3682 1.42859 12.3168 0.993046C11.2653 0.557506 10.1383 0.333336 9.00016 0.333336ZM9.00016 15.9333C7.62888 15.9333 6.28839 15.5267 5.14821 14.7649C4.00803 14.003 3.11937 12.9202 2.5946 11.6533C2.06983 10.3864 1.93253 8.99231 2.20006 7.64737C2.46758 6.30244 3.12791 5.06704 4.09756 4.09739C5.0672 3.12775 6.3026 2.46741 7.64754 2.19989C8.99247 1.93237 10.3865 2.06967 11.6534 2.59444C12.9203 3.1192 14.0032 4.00787 14.765 5.14805C15.5269 6.28823 15.9335 7.62872 15.9335 9C15.9335 10.8388 15.203 12.6024 13.9028 13.9026C12.6025 15.2029 10.839 15.9333 9.00016 15.9333ZM9.00016 4.66667C8.54349 4.66638 8.09479 4.78637 7.69922 5.01458C7.30365 5.2428 6.97517 5.57117 6.74683 5.96667C6.68412 6.06531 6.64202 6.17562 6.62305 6.29095C6.60408 6.40629 6.60863 6.52427 6.63644 6.6378C6.66425 6.75133 6.71474 6.85806 6.78486 6.95158C6.85499 7.04509 6.94331 7.12345 7.04451 7.18195C7.1457 7.24044 7.25769 7.27786 7.37372 7.29195C7.48975 7.30605 7.60744 7.29653 7.7197 7.26396C7.83195 7.23139 7.93646 7.17645 8.02694 7.10245C8.11741 7.02845 8.19199 6.9369 8.24616 6.83333C8.32252 6.70108 8.43247 6.59134 8.56488 6.51525C8.69729 6.43915 8.84745 6.39939 9.00016 6.4C9.23002 6.4 9.45046 6.49131 9.61299 6.65384C9.77552 6.81637 9.86683 7.03681 9.86683 7.26667C9.86683 7.49652 9.77552 7.71696 9.61299 7.87949C9.45046 8.04202 9.23002 8.13333 9.00016 8.13333C8.77031 8.13333 8.54987 8.22464 8.38734 8.38717C8.22481 8.54971 8.1335 8.77015 8.1335 9V9.86667C8.1335 10.0965 8.22481 10.317 8.38734 10.4795C8.54987 10.642 8.77031 10.7333 9.00016 10.7333C9.23002 10.7333 9.45046 10.642 9.61299 10.4795C9.77552 10.317 9.86683 10.0965 9.86683 9.86667V9.71067C10.44 9.50268 10.9219 9.09986 11.2282 8.57262C11.5345 8.04538 11.6457 7.42725 11.5424 6.8263C11.4392 6.22536 11.128 5.67982 10.6633 5.28505C10.1986 4.89028 9.6099 4.6714 9.00016 4.66667Z" fill="#FFA901"/>
</svg>
